<?xml version="1.0" encoding="UTF-8" standalone="no"?>
<!DOCTYPE svg PUBLIC "-//W3C//DTD SVG 1.1//EN"
 "http://www.w3.org/Graphics/SVG/1.1/DTD/svg11.dtd">
<!-- Generated by graphviz version 2.42.3 (20191010.1750)
 -->
<!-- Title: id Pages: 1 -->
<svg width="185pt" height="446pt"
 viewBox="0.00 0.00 185.32 446.36" xmlns="http://www.w3.org/2000/svg" xmlns:xlink="http://www.w3.org/1999/xlink">
<g id="graph0" class="graph" transform="scale(1 1) rotate(0) translate(4 442.36)">
<title>id</title>
<polygon fill="white" stroke="transparent" points="-4,4 -4,-442.36 181.32,-442.36 181.32,4 -4,4"/>
<!-- S -->
<g id="node1" class="node">
<title>S</title>
<ellipse fill="none" stroke="black" cx="18" cy="-197.28" rx="18" ry="18"/>
<text text-anchor="middle" x="18" y="-193.08" font-family="Times,serif" font-size="14.00">0</text>
</g>
<!-- S&#45;&#45;S -->
<g id="edge1" class="edge">
<title>S&#45;&#45;S</title>
<path fill="none" stroke="black" stroke-width="0.4" d="M9.02,-213.19C6.68,-223.43 9.67,-233.28 18,-233.28 23.47,-233.28 26.63,-229.04 27.5,-223.23"/>
<polygon fill="black" stroke="black" stroke-width="0.4" points="26.98,-213.19 31.99,-222.94 27.24,-218.19 27.5,-223.18 27.5,-223.18 27.5,-223.18 27.24,-218.19 23.01,-223.41 26.98,-213.19 26.98,-213.19"/>
<text text-anchor="middle" x="18" y="-236.08" font-family="Times,serif" font-size="14.00">empty</text>
</g>
<!-- T -->
<g id="node2" class="node">
<title>T</title>
<ellipse fill="none" stroke="black" cx="142.16" cy="-374.28" rx="32.16" ry="32.16"/>
<text text-anchor="middle" x="142.16" y="-370.08" font-family="Times,serif" font-size="14.00">**Tab</text>
</g>
<!-- S&#45;&#45;T -->
<g id="edge2" class="edge">
<title>S&#45;&#45;T</title>
<path fill="none" stroke="black" stroke-width="0.4" d="M18.96,-215.3C19.83,-243.58 25.39,-298.72 54,-333.28 66.03,-347.81 84.4,-357.5 101.17,-363.79"/>
<polygon fill="black" stroke="black" stroke-width="0.4" points="110.8,-367.11 99.88,-368.11 106.07,-365.48 101.35,-363.85 101.35,-363.85 101.35,-363.85 106.07,-365.48 102.81,-359.6 110.8,-367.11 110.8,-367.11"/>
<text text-anchor="middle" x="71.5" y="-360.08" font-family="Times,serif" font-size="14.00">**str</text>
</g>
<!-- D -->
<g id="node3" class="node">
<title>D</title>
<ellipse fill="none" stroke="black" cx="142.16" cy="-257.28" rx="35.32" ry="35.32"/>
<text text-anchor="middle" x="142.16" y="-253.08" font-family="Times,serif" font-size="14.00">***Dir</text>
</g>
<!-- S&#45;&#45;D -->
<g id="edge3" class="edge">
<title>S&#45;&#45;D</title>
<path fill="none" stroke="black" stroke-width="0.4" d="M29.2,-211.45C35.52,-219.25 44.27,-228.5 54,-234.28 67.12,-242.06 82.89,-247.26 97.39,-250.7"/>
<polygon fill="black" stroke="black" stroke-width="0.4" points="107.17,-252.82 96.45,-255.1 102.29,-251.76 97.4,-250.7 97.4,-250.7 97.4,-250.7 102.29,-251.76 98.35,-246.3 107.17,-252.82 107.17,-252.82"/>
<text text-anchor="middle" x="71.5" y="-250.08" font-family="Times,serif" font-size="14.00">***str</text>
</g>
<!-- TEMP -->
<g id="node4" class="node">
<title>TEMP</title>
<ellipse fill="none" stroke="black" cx="142.16" cy="-139.28" rx="32.65" ry="32.65"/>
<text text-anchor="middle" x="142.16" y="-135.08" font-family="Times,serif" font-size="14.00">:Temp</text>
</g>
<!-- S&#45;&#45;TEMP -->
<g id="edge4" class="edge">
<title>S&#45;&#45;TEMP</title>
<path fill="none" stroke="black" stroke-width="0.4" d="M34.47,-189.93C51.63,-181.79 79.93,-168.35 103.08,-157.36"/>
<polygon fill="black" stroke="black" stroke-width="0.4" points="112.31,-152.98 105.2,-161.33 107.79,-155.12 103.27,-157.27 103.27,-157.27 103.27,-157.27 107.79,-155.12 101.34,-153.2 112.31,-152.98 112.31,-152.98"/>
<text text-anchor="middle" x="71.5" y="-182.08" font-family="Times,serif" font-size="14.00">:</text>
</g>
<!-- M -->
<g id="node5" class="node">
<title>M</title>
<ellipse fill="none" stroke="black" cx="142.16" cy="-28.28" rx="28.06" ry="28.06"/>
<text text-anchor="middle" x="142.16" y="-24.08" font-family="Times,serif" font-size="14.00">Meta</text>
</g>
<!-- S&#45;&#45;M -->
<g id="edge7" class="edge">
<title>S&#45;&#45;M</title>
<path fill="none" stroke="black" stroke-width="0.4" d="M24.46,-180.13C30.28,-163.28 40.52,-137.26 54,-117.28 70.41,-92.96 93.89,-69.43 112.35,-52.68"/>
<polygon fill="black" stroke="black" stroke-width="0.4" points="119.92,-45.93 115.45,-55.95 116.19,-49.26 112.46,-52.59 112.46,-52.59 112.46,-52.59 116.19,-49.26 109.46,-49.23 119.92,-45.93 119.92,-45.93"/>
<text text-anchor="middle" x="71.5" y="-120.08" font-family="Times,serif" font-size="14.00">other</text>
</g>
<!-- T&#45;&#45;S -->
<g id="edge10" class="edge">
<title>T&#45;&#45;S</title>
<path fill="none" stroke="black" stroke-width="0.4" d="M120.8,-350.1C116.22,-344.6 111.42,-338.76 107,-333.28 82.96,-303.44 74.64,-297.56 54,-265.28 45.34,-251.73 37.04,-235.78 30.7,-222.73"/>
<polygon fill="black" stroke="black" stroke-width="0.4" points="26.25,-213.41 34.62,-220.5 28.41,-217.92 30.56,-222.43 30.56,-222.43 30.56,-222.43 28.41,-217.92 26.49,-224.37 26.25,-213.41 26.25,-213.41"/>
<text text-anchor="middle" x="71.5" y="-314.08" font-family="Times,serif" font-size="14.00">empty</text>
</g>
<!-- T&#45;&#45;T -->
<g id="edge11" class="edge">
<title>T&#45;&#45;T</title>
<path fill="none" stroke="black" stroke-width="0.4" d="M129.09,-403.6C128.51,-414.94 132.86,-424.36 142.16,-424.36 148.41,-424.36 152.42,-420.11 154.21,-413.88"/>
<polygon fill="black" stroke="black" stroke-width="0.4" points="155.23,-403.6 158.72,-414 154.74,-408.57 154.24,-413.55 154.24,-413.55 154.24,-413.55 154.74,-408.57 149.77,-413.1 155.23,-403.6 155.23,-403.6"/>
<text text-anchor="middle" x="142.16" y="-427.16" font-family="Times,serif" font-size="14.00">non&#45;empty</text>
</g>
<!-- D&#45;&#45;S -->
<g id="edge13" class="edge">
<title>D&#45;&#45;S</title>
<path fill="none" stroke="black" stroke-width="0.4" d="M115.76,-234C107.66,-227.52 98.37,-220.98 89,-216.28 75.59,-209.54 59.5,-204.96 46.13,-201.99"/>
<polygon fill="black" stroke="black" stroke-width="0.4" points="36.09,-199.94 46.79,-197.53 40.99,-200.94 45.89,-201.94 45.89,-201.94 45.89,-201.94 40.99,-200.94 44.99,-206.35 36.09,-199.94 36.09,-199.94"/>
<text text-anchor="middle" x="71.5" y="-219.08" font-family="Times,serif" font-size="14.00">empty</text>
</g>
<!-- D&#45;&#45;D -->
<g id="edge12" class="edge">
<title>D&#45;&#45;D</title>
<path fill="none" stroke="black" stroke-width="0.4" d="M129.04,-289.98C128.9,-301.3 133.27,-310.44 142.16,-310.44 148.13,-310.44 152.06,-306.31 153.96,-300.17"/>
<polygon fill="black" stroke="black" stroke-width="0.4" points="155.28,-289.98 158.46,-300.48 154.64,-294.94 154,-299.9 154,-299.9 154,-299.9 154.64,-294.94 149.53,-299.32 155.28,-289.98 155.28,-289.98"/>
<text text-anchor="middle" x="142.16" y="-313.24" font-family="Times,serif" font-size="14.00">non&#45;empty</text>
</g>
<!-- TEMP&#45;&#45;S -->
<g id="edge6" class="edge">
<title>TEMP&#45;&#45;S</title>
<path fill="none" stroke="black" stroke-width="0.4" d="M109.78,-135.46C92.27,-134.82 70.69,-136.62 54,-146.28 44,-152.07 36.22,-162 30.57,-171.57"/>
<polygon fill="black" stroke="black" stroke-width="0.4" points="25.79,-180.49 26.54,-169.55 28.15,-176.08 30.51,-171.67 30.51,-171.67 30.51,-171.67 28.15,-176.08 34.48,-173.8 25.79,-180.49 25.79,-180.49"/>
<text text-anchor="middle" x="71.5" y="-149.08" font-family="Times,serif" font-size="14.00">empty</text>
</g>
<!-- TEMP&#45;&#45;TEMP -->
<g id="edge5" class="edge">
<title>TEMP&#45;&#45;TEMP</title>
<path fill="none" stroke="black" stroke-width="0.4" d="M129.07,-169.14C128.57,-180.48 132.93,-189.85 142.16,-189.85 148.36,-189.85 152.36,-185.62 154.17,-179.4"/>
<polygon fill="black" stroke="black" stroke-width="0.4" points="155.25,-169.14 158.68,-179.55 154.73,-174.11 154.2,-179.09 154.2,-179.09 154.2,-179.09 154.73,-174.11 149.73,-178.62 155.25,-169.14 155.25,-169.14"/>
<text text-anchor="middle" x="142.16" y="-192.65" font-family="Times,serif" font-size="14.00">non&#45;empty</text>
</g>
<!-- M&#45;&#45;S -->
<g id="edge9" class="edge">
<title>M&#45;&#45;S</title>
<path fill="none" stroke="black" stroke-width="0.4" d="M113.85,-30.87C94.51,-34.14 69.37,-41.54 54,-58.28 26.14,-88.61 19.67,-137.81 18.58,-168.81"/>
<polygon fill="black" stroke="black" stroke-width="0.4" points="18.4,-178.96 14.08,-168.87 18.49,-173.96 18.58,-168.96 18.58,-168.96 18.58,-168.96 18.49,-173.96 23.08,-169.04 18.4,-178.96 18.4,-178.96"/>
<text text-anchor="middle" x="71.5" y="-61.08" font-family="Times,serif" font-size="14.00">empty</text>
</g>
<!-- M&#45;&#45;M -->
<g id="edge8" class="edge">
<title>M&#45;&#45;M</title>
<path fill="none" stroke="black" stroke-width="0.4" d="M129.24,-53.51C128.01,-64.79 132.32,-74.55 142.16,-74.55 148.77,-74.55 152.89,-70.15 154.5,-63.83"/>
<polygon fill="black" stroke="black" stroke-width="0.4" points="155.08,-53.51 159.02,-63.74 154.8,-58.5 154.52,-63.49 154.52,-63.49 154.52,-63.49 154.8,-58.5 150.03,-63.24 155.08,-53.51 155.08,-53.51"/>
<text text-anchor="middle" x="142.16" y="-77.35" font-family="Times,serif" font-size="14.00">non&#45;empty</text>
</g>
</g>
</svg>
