<?xml version="1.0" encoding="UTF-8" standalone="no"?>
<!DOCTYPE svg PUBLIC "-//W3C//DTD SVG 1.1//EN"
 "http://www.w3.org/Graphics/SVG/1.1/DTD/svg11.dtd">
<!-- Generated by graphviz version 2.42.3 (20191010.1750)
 -->
<!-- Title: id Pages: 1 -->
<svg width="440pt" height="344pt"
 viewBox="0.00 0.00 440.42 344.19" xmlns="http://www.w3.org/2000/svg" xmlns:xlink="http://www.w3.org/1999/xlink">
<g id="graph0" class="graph" transform="scale(1 1) rotate(0) translate(4 340.19)">
<title>id</title>
<polygon fill="white" stroke="transparent" points="-4,4 -4,-340.19 436.42,-340.19 436.42,4 -4,4"/>
<g id="clust1" class="cluster">
<title>clusterFooter</title>
</g>
<!-- FOOTER -->
<g id="node1" class="node">
<title>FOOTER</title>
<polygon fill="none" stroke="black" points="108.73,-123.03 7.76,-123.03 7.76,-87.03 108.73,-87.03 108.73,-123.03"/>
<text text-anchor="middle" x="58.24" y="-100.83" font-family="Times,serif" font-size="14.00">ε := emit block</text>
</g>
<!-- start -->
<g id="node2" class="node">
<title>start</title>
<ellipse fill="none" stroke="black" cx="58.24" cy="-166.03" rx="25.17" ry="25.17"/>
<text text-anchor="middle" x="58.24" y="-161.83" font-family="Times,serif" font-size="14.00">start</text>
</g>
<!-- M -->
<g id="node3" class="node">
<title>M</title>
<ellipse fill="none" stroke="black" cx="176.22" cy="-166.03" rx="30.97" ry="30.97"/>
<text text-anchor="middle" x="176.22" y="-161.83" font-family="Times,serif" font-size="14.00">Meta:</text>
</g>
<!-- start&#45;&#45;M -->
<g id="edge1" class="edge">
<title>start&#45;&#45;M</title>
<path fill="none" stroke="black" stroke-width="0.4" d="M83.84,-166.03C98.71,-166.03 118.02,-166.03 135.05,-166.03"/>
<polygon fill="black" stroke="black" stroke-width="0.4" points="145.31,-166.03 135.31,-170.53 140.31,-166.03 135.31,-166.03 135.31,-166.03 135.31,-166.03 140.31,-166.03 135.31,-161.53 145.31,-166.03 145.31,-166.03"/>
</g>
<!-- M&#45;&#45;M -->
<g id="edge7" class="edge">
<title>M&#45;&#45;M</title>
<path fill="none" stroke="black" stroke-width="0.4" d="M167.23,-195.53C167.04,-206.13 170.03,-214.77 176.22,-214.77 180.28,-214.77 182.97,-211.05 184.28,-205.49"/>
<polygon fill="black" stroke="black" stroke-width="0.4" points="185.21,-195.53 188.76,-205.91 184.75,-200.51 184.28,-205.49 184.28,-205.49 184.28,-205.49 184.75,-200.51 179.8,-205.07 185.21,-195.53 185.21,-195.53"/>
<text text-anchor="middle" x="176.22" y="-217.57" font-family="Times,serif" font-size="14.00">[^;]+[:]$</text>
</g>
<!-- S -->
<g id="node4" class="node">
<title>S</title>
<ellipse fill="none" stroke="black" cx="267.17" cy="-166.03" rx="18" ry="18"/>
<text text-anchor="middle" x="267.17" y="-161.83" font-family="Times,serif" font-size="14.00">0</text>
</g>
<!-- M&#45;&#45;S -->
<g id="edge8" class="edge">
<title>M&#45;&#45;S</title>
<path fill="none" stroke="black" stroke-width="0.4" d="M207.33,-166.03C217.55,-166.03 228.9,-166.03 238.88,-166.03"/>
<polygon fill="black" stroke="black" stroke-width="0.4" points="249.06,-166.03 239.06,-170.53 244.06,-166.03 239.06,-166.03 239.06,-166.03 239.06,-166.03 244.06,-166.03 239.06,-161.53 249.06,-166.03 249.06,-166.03"/>
<text text-anchor="middle" x="228.06" y="-168.83" font-family="Times,serif" font-size="14.00">ε</text>
</g>
<!-- D -->
<g id="node5" class="node">
<title>D</title>
<ellipse fill="none" stroke="black" cx="395.29" cy="-269.03" rx="35.32" ry="35.32"/>
<text text-anchor="middle" x="395.29" y="-264.83" font-family="Times,serif" font-size="14.00">***Dir</text>
</g>
<!-- S&#45;&#45;D -->
<g id="edge3" class="edge">
<title>S&#45;&#45;D</title>
<path fill="none" stroke="black" stroke-width="0.4" d="M271.47,-183.53C275.74,-201.31 284.91,-228.39 303.17,-244.03 316.17,-255.17 333.71,-261.38 349.93,-264.83"/>
<polygon fill="black" stroke="black" stroke-width="0.4" points="359.81,-266.64 349.16,-269.26 354.89,-265.74 349.97,-264.84 349.97,-264.84 349.97,-264.84 354.89,-265.74 350.78,-260.41 359.81,-266.64 359.81,-266.64"/>
<text text-anchor="middle" x="322.65" y="-264.83" font-family="Times,serif" font-size="14.00">^***.+</text>
</g>
<!-- T -->
<g id="node6" class="node">
<title>T</title>
<ellipse fill="none" stroke="black" cx="395.29" cy="-152.03" rx="32.16" ry="32.16"/>
<text text-anchor="middle" x="395.29" y="-147.83" font-family="Times,serif" font-size="14.00">**Tab</text>
</g>
<!-- S&#45;&#45;T -->
<g id="edge2" class="edge">
<title>S&#45;&#45;T</title>
<path fill="none" stroke="black" stroke-width="0.4" d="M285.27,-166.15C300.31,-166.05 322.75,-165.45 342.13,-163.03 345.89,-162.56 349.78,-161.96 353.66,-161.28"/>
<polygon fill="black" stroke="black" stroke-width="0.4" points="363.82,-159.35 354.84,-165.64 358.91,-160.28 354,-161.22 354,-161.22 354,-161.22 358.91,-160.28 353.16,-156.8 363.82,-159.35 363.82,-159.35"/>
<text text-anchor="middle" x="322.65" y="-167.83" font-family="Times,serif" font-size="14.00">^**.+</text>
</g>
<!-- TEMP -->
<g id="node7" class="node">
<title>TEMP</title>
<ellipse fill="none" stroke="black" cx="395.29" cy="-35.03" rx="35.06" ry="35.06"/>
<text text-anchor="middle" x="395.29" y="-30.83" font-family="Times,serif" font-size="14.00">:Templ</text>
</g>
<!-- S&#45;&#45;TEMP -->
<g id="edge4" class="edge">
<title>S&#45;&#45;TEMP</title>
<path fill="none" stroke="black" stroke-width="0.4" d="M275.87,-150.01C282.2,-137.76 291.93,-120.86 303.17,-108.03 318.89,-90.08 339.42,-73.2 357.02,-60.2"/>
<polygon fill="black" stroke="black" stroke-width="0.4" points="365.39,-54.14 359.92,-63.65 361.34,-57.07 357.29,-60.01 357.29,-60.01 357.29,-60.01 361.34,-57.07 354.65,-56.36 365.39,-54.14 365.39,-54.14"/>
<text text-anchor="middle" x="322.65" y="-110.83" font-family="Times,serif" font-size="14.00">^.+[:]</text>
</g>
<!-- D&#45;&#45;S -->
<g id="edge12" class="edge">
<title>D&#45;&#45;S</title>
<path fill="none" stroke="black" stroke-width="0.4" d="M367.79,-247.12C359.58,-240.34 350.49,-232.87 342.13,-226.03 324.58,-211.68 304.62,-195.49 289.86,-183.55"/>
<polygon fill="black" stroke="black" stroke-width="0.4" points="281.83,-177.06 292.43,-179.85 285.71,-180.2 289.6,-183.34 289.6,-183.34 289.6,-183.34 285.71,-180.2 286.77,-186.84 281.83,-177.06 281.83,-177.06"/>
<text text-anchor="middle" x="322.65" y="-228.83" font-family="Times,serif" font-size="14.00">ε</text>
</g>
<!-- D&#45;&#45;D -->
<g id="edge11" class="edge">
<title>D&#45;&#45;D</title>
<path fill="none" stroke="black" stroke-width="0.4" d="M381.8,-301.74C381.65,-313.05 386.15,-322.19 395.29,-322.19 401.43,-322.19 405.48,-318.07 407.43,-311.93"/>
<polygon fill="black" stroke="black" stroke-width="0.4" points="408.79,-301.74 411.93,-312.24 408.13,-306.69 407.47,-311.65 407.47,-311.65 407.47,-311.65 408.13,-306.69 403.01,-311.05 408.79,-301.74 408.79,-301.74"/>
<text text-anchor="middle" x="395.29" y="-324.99" font-family="Times,serif" font-size="14.00">directive row</text>
</g>
<!-- T&#45;&#45;S -->
<g id="edge9" class="edge">
<title>T&#45;&#45;S</title>
<path fill="none" stroke="black" stroke-width="0.4" d="M363.83,-144.54C345.88,-141.39 322.89,-139.57 303.17,-145.03 298.94,-146.2 294.71,-148.03 290.73,-150.14"/>
<polygon fill="black" stroke="black" stroke-width="0.4" points="282.01,-155.36 288.27,-146.36 286.3,-152.79 290.59,-150.23 290.59,-150.23 290.59,-150.23 286.3,-152.79 292.9,-154.09 282.01,-155.36 282.01,-155.36"/>
<text text-anchor="middle" x="322.65" y="-147.83" font-family="Times,serif" font-size="14.00">ε</text>
</g>
<!-- T&#45;&#45;T -->
<g id="edge10" class="edge">
<title>T&#45;&#45;T</title>
<path fill="none" stroke="black" stroke-width="0.4" d="M381.85,-181.35C381.25,-192.69 385.73,-202.11 395.29,-202.11 401.72,-202.11 405.85,-197.86 407.69,-191.63"/>
<polygon fill="black" stroke="black" stroke-width="0.4" points="408.74,-181.35 412.2,-191.76 408.23,-186.33 407.72,-191.3 407.72,-191.3 407.72,-191.3 408.23,-186.33 403.24,-190.84 408.74,-181.35 408.74,-181.35"/>
<text text-anchor="middle" x="395.29" y="-204.91" font-family="Times,serif" font-size="14.00">table row</text>
</g>
<!-- TEMP&#45;&#45;S -->
<g id="edge6" class="edge">
<title>TEMP&#45;&#45;S</title>
<path fill="none" stroke="black" stroke-width="0.4" d="M360.19,-34.97C341.23,-36.7 318.45,-41.95 303.17,-56.03 280.34,-77.07 272.33,-112.91 269.55,-137.94"/>
<polygon fill="black" stroke="black" stroke-width="0.4" points="268.66,-147.94 265.07,-137.58 269.1,-142.96 269.55,-137.98 269.55,-137.98 269.55,-137.98 269.1,-142.96 274.03,-138.38 268.66,-147.94 268.66,-147.94"/>
<text text-anchor="middle" x="322.65" y="-58.83" font-family="Times,serif" font-size="14.00">ε</text>
</g>
<!-- TEMP&#45;&#45;TEMP -->
<g id="edge5" class="edge">
<title>TEMP&#45;&#45;TEMP</title>
<path fill="none" stroke="black" stroke-width="0.4" d="M381.8,-67.39C381.58,-78.8 386.08,-88.06 395.29,-88.06 401.48,-88.06 405.54,-83.88 407.48,-77.68"/>
<polygon fill="black" stroke="black" stroke-width="0.4" points="408.79,-67.39 411.99,-77.88 408.15,-72.35 407.52,-77.31 407.52,-77.31 407.52,-77.31 408.15,-72.35 403.06,-76.75 408.79,-67.39 408.79,-67.39"/>
<text text-anchor="middle" x="395.29" y="-90.86" font-family="Times,serif" font-size="14.00">template row</text>
</g>
</g>
</svg>
