<?xml version="1.0" encoding="UTF-8" standalone="no"?><svg xmlns="http://www.w3.org/2000/svg" xmlns:xlink="http://www.w3.org/1999/xlink" contentScriptType="application/ecmascript" contentStyleType="text/css" height="335px" preserveAspectRatio="none" style="width:945px;height:335px;" version="1.1" viewBox="0 0 945 335" width="945px" zoomAndPan="magnify"><defs><filter height="300%" id="fmv18sowsj0vj" width="300%" x="-1" y="-1"><feGaussianBlur result="blurOut" stdDeviation="2.0"/><feColorMatrix in="blurOut" result="blurOut2" type="matrix" values="0 0 0 0 0 0 0 0 0 0 0 0 0 0 0 0 0 0 .4 0"/><feOffset dx="4.0" dy="4.0" in="blurOut2" result="blurOut3"/><feBlend in="SourceGraphic" in2="blurOut3" mode="normal"/></filter></defs><g><text fill="#000000" font-family="sans-serif" font-size="22" font-weight="bold" lengthAdjust="spacingAndGlyphs" textLength="266" x="330.5" y="20.4209">pdtable.io highlights</text><!--MD5=[22e39c158ccd515e083392dc1f6fdf64]
cluster files--><rect fill="#FFFFFF" filter="url(#fmv18sowsj0vj)" height="229" style="stroke: #000000; stroke-width: 1.5;" width="117" x="7" y="89.6094"/><text fill="#000000" font-family="sans-serif" font-size="14" font-weight="bold" lengthAdjust="spacingAndGlyphs" textLength="101" x="15" y="104.6045">File / stream</text><!--MD5=[917295465906c8c8764f8324f07e5158]
cluster memory--><rect fill="#FFFFFF" filter="url(#fmv18sowsj0vj)" height="232" style="stroke: #000000; stroke-width: 1.5;" width="679" x="249" y="32.6094"/><text fill="#000000" font-family="sans-serif" font-size="14" font-weight="bold" lengthAdjust="spacingAndGlyphs" textLength="64" x="556.5" y="47.6045">Memory</text><!--MD5=[5b5b6116e9ca12b5be308e1a61d0aa39]
entity csv--><polygon fill="#FEFECE" filter="url(#fmv18sowsj0vj)" points="40,195.6094,40,231.9063,91,231.9063,91,205.6094,81,195.6094,40,195.6094" style="stroke: #000000; stroke-width: 1.5;"/><path d="M81,195.6094 L81,205.6094 L91,205.6094 " fill="#FEFECE" style="stroke: #000000; stroke-width: 1.5;"/><text fill="#000000" font-family="sans-serif" font-size="14" font-weight="bold" lengthAdjust="spacingAndGlyphs" textLength="31" x="50" y="218.6045">CSV</text><!--MD5=[298ce850d60ec30fd6b0e133b061c1ae]
entity xl--><polygon fill="#FEFECE" filter="url(#fmv18sowsj0vj)" points="35,266.6094,35,302.9063,96,302.9063,96,276.6094,86,266.6094,35,266.6094" style="stroke: #000000; stroke-width: 1.5;"/><path d="M86,266.6094 L86,276.6094 L96,276.6094 " fill="#FEFECE" style="stroke: #000000; stroke-width: 1.5;"/><text fill="#000000" font-family="sans-serif" font-size="14" font-weight="bold" lengthAdjust="spacingAndGlyphs" textLength="41" x="45" y="289.6045">Excel</text><!--MD5=[a264f174970795e6f8e9a8e3ba271873]
entity json--><polygon fill="#FEFECE" filter="url(#fmv18sowsj0vj)" points="38.5,124.6094,38.5,160.9063,92.5,160.9063,92.5,134.6094,82.5,124.6094,38.5,124.6094" style="stroke: #000000; stroke-width: 1.5;"/><path d="M82.5,124.6094 L82.5,134.6094 L92.5,134.6094 " fill="#FEFECE" style="stroke: #000000; stroke-width: 1.5;"/><text fill="#000000" font-family="sans-serif" font-size="14" lengthAdjust="spacingAndGlyphs" textLength="34" x="48.5" y="147.6045">JSON</text><!--MD5=[4107631b491df1f70f3f8aeab85f2740]
entity cellgrid--><polygon fill="#D3D3D3" filter="url(#fmv18sowsj0vj)" points="265,182.6094,265,218.9063,344,218.9063,344,192.6094,334,182.6094,265,182.6094" style="stroke: #000000; stroke-width: 1.5;"/><path d="M334,182.6094 L334,192.6094 L344,192.6094 " fill="#D3D3D3" style="stroke: #000000; stroke-width: 1.5;"/><text fill="#000000" font-family="sans-serif" font-size="14" lengthAdjust="spacingAndGlyphs" textLength="59" x="275" y="205.6045">Cell grid</text><!--MD5=[6c3557938019204f1182634bc11542ef]
entity prejson--><polygon fill="#D3D3D3" filter="url(#fmv18sowsj0vj)" points="503,182.6094,503,218.9063,654,218.9063,654,192.6094,644,182.6094,503,182.6094" style="stroke: #000000; stroke-width: 1.5;"/><path d="M644,182.6094 L644,192.6094 L654,192.6094 " fill="#D3D3D3" style="stroke: #000000; stroke-width: 1.5;"/><text fill="#000000" font-family="sans-serif" font-size="14" lengthAdjust="spacingAndGlyphs" textLength="131" x="513" y="205.6045">JsonDataPrecursor</text><!--MD5=[b49d864005a1157e1396d4f698e10165]
entity jsondata--><polygon fill="#FEFECE" filter="url(#fmv18sowsj0vj)" points="537,94.6094,537,130.9063,620,130.9063,620,104.6094,610,94.6094,537,94.6094" style="stroke: #000000; stroke-width: 1.5;"/><path d="M610,94.6094 L610,104.6094 L620,104.6094 " fill="#FEFECE" style="stroke: #000000; stroke-width: 1.5;"/><text fill="#000000" font-family="sans-serif" font-size="14" lengthAdjust="spacingAndGlyphs" textLength="63" x="547" y="117.6045">JsonData</text><!--MD5=[1a9b3ce6b05045b91178d8f4231a8390]
entity table--><polygon fill="#FEFECE" filter="url(#fmv18sowsj0vj)" points="847,195.6094,847,231.9063,912,231.9063,912,205.6094,902,195.6094,847,195.6094" style="stroke: #000000; stroke-width: 1.5;"/><path d="M902,195.6094 L902,205.6094 L912,205.6094 " fill="#FEFECE" style="stroke: #000000; stroke-width: 1.5;"/><text fill="#000000" font-family="sans-serif" font-size="14" font-weight="bold" lengthAdjust="spacingAndGlyphs" textLength="45" x="857" y="218.6045">Table</text><!--MD5=[b57c0f5767252dff7513054053a011f3]
link csv to cellgrid--><path d="M91.4152,212.2424 C131.319,210.0544 210.096,205.7324 259.599,203.0174 " fill="none" id="csv-to-cellgrid" style="stroke: #A80036; stroke-width: 1.0;"/><polygon fill="#A80036" points="264.89,202.7274,255.6841,199.2271,259.8975,203.0016,256.123,207.215,264.89,202.7274" style="stroke: #A80036; stroke-width: 1.0;"/><text fill="#000000" font-family="Consolas" font-size="13" font-weight="bold" lengthAdjust="spacingAndGlyphs" textLength="77" x="148" y="200.6763">read_csv()</text><!--MD5=[8228438bf6bb005dbc1c209cb5bdff22]
link xl to cellgrid--><path d="M96.0979,276.8989 C129.723,267.8285 186.025,251.6949 233,233.6094 C242.754,229.8544 253.05,225.3554 262.669,220.9054 " fill="none" id="xl-to-cellgrid" style="stroke: #A80036; stroke-width: 1.0;"/><polygon fill="#A80036" points="267.332,218.7284,257.4848,218.9089,262.8009,220.8425,260.8674,226.1586,267.332,218.7284" style="stroke: #A80036; stroke-width: 1.0;"/><text fill="#000000" font-family="Consolas" font-size="13" font-weight="bold" lengthAdjust="spacingAndGlyphs" textLength="91" x="141" y="229.6763">read_excel()</text><!--MD5=[d61c8d2e006a7aa4291e29b1b39244a6]
link cellgrid to prejson--><path d="M344.182,200.6094 C383.957,200.6094 447.052,200.6094 497.606,200.6094 " fill="none" id="cellgrid-to-prejson" style="stroke: #A80036; stroke-width: 1.0;"/><polygon fill="#A80036" points="502.769,200.6094,493.769,196.6094,497.769,200.6094,493.769,204.6094,502.769,200.6094" style="stroke: #A80036; stroke-width: 1.0;"/><!--MD5=[e5a017365d85b99ce786af6de1a1cb35]
link prejson to jsondata--><path d="M578.5,182.3754 C578.5,168.9244 578.5,150.5134 578.5,135.9814 " fill="none" id="prejson-to-jsondata" style="stroke: #A80036; stroke-width: 1.0;"/><polygon fill="#A80036" points="578.5,130.8194,574.5,139.8194,578.5,135.8194,582.5,139.8194,578.5,130.8194" style="stroke: #A80036; stroke-width: 1.0;"/><text fill="#000000" font-family="Consolas" font-size="13" lengthAdjust="spacingAndGlyphs" textLength="84" x="525" y="161.1763">to='jsondata'</text><!--MD5=[21f12cb4842df8cbeefcc472bcdcda8b]
link prejson to table--><path d="M654.12,213.4434 C664.138,214.7524 674.301,215.8714 684,216.6094 C742.941,221.0954 757.906,218.0494 817,216.6094 C825.053,216.4134 833.695,216.0724 841.88,215.6894 " fill="none" id="prejson-to-table" style="stroke: #A80036; stroke-width: 1.0;"/><polygon fill="#A80036" points="846.908,215.4464,837.7254,211.8856,841.9138,215.6878,838.1116,219.8763,846.908,215.4464" style="stroke: #A80036; stroke-width: 1.0;"/><text fill="#000000" font-family="Consolas" font-size="13" font-weight="bold" lengthAdjust="spacingAndGlyphs" textLength="93" x="704" y="197.6763">to='pdtable'</text><text fill="#000000" font-family="Consolas" font-size="13" font-weight="bold" lengthAdjust="spacingAndGlyphs" textLength="67" x="717" y="212.8091">(default)</text><!--MD5=[035f32cc742aedf2712596423c1a3091]
link json to jsondata--><path d="M92.5431,141.0804 C174.446,136.2724 427.517,121.4144 531.833,115.2904 " fill="none" id="json-to-jsondata" style="stroke: #A80036; stroke-width: 1.0;"/><polygon fill="#A80036" points="536.987,114.9874,527.7682,111.5214,531.9956,115.2802,528.2367,119.5076,536.987,114.9874" style="stroke: #A80036; stroke-width: 1.0;"/><text fill="#000000" font-family="Consolas" font-size="13" lengthAdjust="spacingAndGlyphs" textLength="67" x="271" y="122.6763">json.load()</text><!--MD5=[eb9a35422a0fa1c6ca54b2eae31825d3]
link jsondata to json--><path d="M536.992,104.4584 C517.701,100.9784 494.253,97.3264 473,95.6094 C325.368,83.6794 283.463,71.7884 140,108.6094 C125.324,112.3764 109.98,118.9964 97.1299,125.4004 " fill="none" id="jsondata-to-json" style="stroke: #A80036; stroke-width: 1.0;"/><polygon fill="#A80036" points="92.5145,127.7444,102.3502,127.2346,96.9723,125.4799,98.727,120.1021,92.5145,127.7444" style="stroke: #A80036; stroke-width: 1.0;"/><text fill="#000000" font-family="Consolas" font-size="13" lengthAdjust="spacingAndGlyphs" textLength="77" x="266" y="79.6763">json.dump()</text><!--MD5=[6e6fcfa5164d9ee8fbf189fefcda845d]
link jsondata to table--><path d="M620.102,125.3814 C639.413,131.3694 662.852,138.5114 684,144.6094 C742.841,161.5774 760.094,157.9854 817,180.6094 C825.835,184.1224 835.033,188.5824 843.54,193.0784 " fill="none" id="jsondata-to-table" style="stroke: #A80036; stroke-width: 1.0;"/><polygon fill="#A80036" points="848.188,195.5744,842.1511,187.7926,843.7829,193.209,838.3665,194.8408,848.188,195.5744" style="stroke: #A80036; stroke-width: 1.0;"/><text fill="#000000" font-family="Consolas" font-size="13" lengthAdjust="spacingAndGlyphs" textLength="131" x="685" y="140.6763">json_data_to_table()</text><!--MD5=[6d84aa5d49e4a43d68abad380b8b1b3c]
reverse link jsondata to table--><path d="M625.353,103.2594 C675.733,95.4724 757.405,90.3674 817,123.6094 C845.096,139.2814 862.997,173.8274 871.854,195.2694 " fill="none" id="jsondata-backto-table" style="stroke: #A80036; stroke-width: 1.0;"/><polygon fill="#A80036" points="620.275,104.0704,629.7925,106.6035,625.2126,103.2832,628.533,98.7033,620.275,104.0704" style="stroke: #A80036; stroke-width: 1.0;"/><text fill="#000000" font-family="Consolas" font-size="13" lengthAdjust="spacingAndGlyphs" textLength="131" x="685" y="92.6763">table_to_json_data()</text><!--MD5=[fccc26aab589bfd617f4f5ae984dc9f1]
reverse link csv to table--><path d="M96.6054,218.7984 C131.291,224.4914 190.06,233.2664 241,236.6094 C424.162,248.6283 470.531,242.232 654,236.6094 C726.547,234.3864 745.078,236.3633 817,226.6094 C826.733,225.2894 837.223,223.2904 846.736,221.2544 " fill="none" id="csv-backto-table" style="stroke: #A80036; stroke-width: 1.0;"/><polygon fill="#A80036" points="91.2502,217.9124,99.4764,223.328,96.1831,218.7287,100.7825,215.4354,91.2502,217.9124" style="stroke: #A80036; stroke-width: 1.0;"/><text fill="#000000" font-family="Consolas" font-size="13" font-weight="bold" lengthAdjust="spacingAndGlyphs" textLength="83" x="382" y="238.6763">write_csv()</text><!--MD5=[681920674bb6720d4c7d5ac8628e7c40]
reverse link xl to table--><path d="M101.451,287.7159 C209.92,296.3044 549.573,315.2519 817,243.6094 C827.213,240.8734 837.758,236.4139 847.169,231.7594 " fill="none" id="xl-backto-table" style="stroke: #A80036; stroke-width: 1.0;"/><polygon fill="#A80036" points="96.1563,287.2903,104.8075,291.9975,101.1403,287.6903,105.4475,284.0231,96.1563,287.2903" style="stroke: #A80036; stroke-width: 1.0;"/><text fill="#000000" font-family="Consolas" font-size="13" font-weight="bold" lengthAdjust="spacingAndGlyphs" textLength="97" x="375" y="288.6763">write_excel()</text><!--MD5=[84b89f31a865a993875e69489e731430]
@startuml
title = pdtable.io highlights

skinparam {
    Arrow {
        FontName Consolas
    }
}

left to right direction

rectangle files as "File / stream" {
    file csv as "<b>CSV"
    file xl as "<b>Excel"
    file json as "JSON"
}

rectangle memory as "Memory" {
    file cellgrid as "Cell grid" #LightGray
    file prejson as "JsonDataPrecursor" #LightGray
    file jsondata as "JsonData"
    file table as "<b>Table"
}

csv - -> cellgrid : <b>read_csv()
xl - -> cellgrid : <b>read_excel()

cellgrid - ->prejson
prejson -> jsondata : to='jsondata'
prejson - -> table : <b>to='pdtable'\n<b>(default)

json - -> jsondata : json.load()
jsondata - -> json : json.dump()

jsondata - -> table : json_data_to_table()
jsondata <- - table : table_to_json_data()

csv <- -table : <b>write_csv()
xl <- -table : <b>write_excel()
@enduml

PlantUML version 1.2020.17(Sat Sep 19 12:30:11 UTC 2020)
(GPL source distribution)
Java Runtime: Java(TM) SE Runtime Environment
JVM: Java HotSpot(TM) 64-Bit Server VM
Default Encoding: UTF-8
Language: en
Country: US
--></g></svg>