<?xml version="1.0" encoding="UTF-8" standalone="no"?><svg xmlns="http://www.w3.org/2000/svg" xmlns:xlink="http://www.w3.org/1999/xlink" contentScriptType="application/ecmascript" contentStyleType="text/css" height="241px" preserveAspectRatio="none" style="width:434px;height:241px;" version="1.1" viewBox="0 0 434 241" width="434px" zoomAndPan="magnify"><defs><filter height="300%" id="f1asyekkzul0bh" width="300%" x="-1" y="-1"><feGaussianBlur result="blurOut" stdDeviation="2.0"/><feColorMatrix in="blurOut" result="blurOut2" type="matrix" values="0 0 0 0 0 0 0 0 0 0 0 0 0 0 0 0 0 0 .4 0"/><feOffset dx="4.0" dy="4.0" in="blurOut2" result="blurOut3"/><feBlend in="SourceGraphic" in2="blurOut3" mode="normal"/></filter></defs><g><text fill="#000000" font-family="sans-serif" font-size="22" font-weight="bold" lengthAdjust="spacingAndGlyphs" textLength="312" x="52" y="20.4209">pdtable.io simplified API</text><!--MD5=[22e39c158ccd515e083392dc1f6fdf64]
cluster files--><rect fill="#F5F5F5" filter="url(#f1asyekkzul0bh)" height="192" style="stroke: #000000; stroke-width: 1.5;" width="176" x="7" y="32.6094"/><text fill="#000000" font-family="sans-serif" font-size="14" font-weight="bold" lengthAdjust="spacingAndGlyphs" textLength="101" x="44.5" y="47.6045">File / stream</text><!--MD5=[917295465906c8c8764f8324f07e5158]
cluster memory--><rect fill="#F5F5F5" filter="url(#f1asyekkzul0bh)" height="91" style="stroke: #000000; stroke-width: 1.5;" width="103" x="314" y="75.6094"/><text fill="#000000" font-family="sans-serif" font-size="14" font-weight="bold" lengthAdjust="spacingAndGlyphs" textLength="64" x="333.5" y="90.6045">Memory</text><!--MD5=[5b5b6116e9ca12b5be308e1a61d0aa39]
entity csv--><polygon fill="#FEFECE" filter="url(#f1asyekkzul0bh)" points="27,67.6094,27,103.9063,163,103.9063,163,77.6094,153,67.6094,27,67.6094" style="stroke: #000000; stroke-width: 1.5;"/><path d="M153,67.6094 L153,77.6094 L163,77.6094 " fill="#FEFECE" style="stroke: #000000; stroke-width: 1.5;"/><text fill="#000000" font-family="sans-serif" font-size="14" font-weight="bold" lengthAdjust="spacingAndGlyphs" textLength="116" x="37" y="90.6045">StarTable CSV</text><!--MD5=[298ce850d60ec30fd6b0e133b061c1ae]
entity xl--><polygon fill="#FEFECE" filter="url(#f1asyekkzul0bh)" points="23,139.1094,23,208,167,208,167,149.1094,157,139.1094,23,139.1094" style="stroke: #000000; stroke-width: 1.5;"/><path d="M157,139.1094 L157,149.1094 L167,149.1094 " fill="#FEFECE" style="stroke: #000000; stroke-width: 1.5;"/><text fill="#000000" font-family="sans-serif" font-size="14" font-weight="bold" lengthAdjust="spacingAndGlyphs" textLength="80" x="33" y="162.1045">StarTable</text><text fill="#000000" font-family="sans-serif" font-size="14" font-weight="bold" lengthAdjust="spacingAndGlyphs" textLength="124" x="33" y="178.4014">Excel workbook</text><text fill="#000000" font-family="sans-serif" font-size="14" lengthAdjust="spacingAndGlyphs" textLength="67" x="33" y="194.6982">(file only)</text><!--MD5=[1a9b3ce6b05045b91178d8f4231a8390]
entity table--><polygon fill="#FEFECE" filter="url(#f1asyekkzul0bh)" points="330,111.1094,330,149.7344,401,149.7344,401,121.1094,391,111.1094,330,111.1094" style="stroke: #000000; stroke-width: 1.5;"/><path d="M391,111.1094 L391,121.1094 L401,121.1094 " fill="#FEFECE" style="stroke: #000000; stroke-width: 1.5;"/><text fill="#000000" font-family="sans-serif" font-size="16" font-weight="bold" lengthAdjust="spacingAndGlyphs" textLength="51" x="340" y="135.9609">Table</text><!--MD5=[ec65343627e6222b213d34a0b8ee1d99]
link csv to table--><path d="M163.103,73.9534 C203.202,69.5794 254.614,68.5874 298,82.6094 C313.702,87.6844 328.817,98.0024 340.658,107.7764 " fill="none" id="csv-to-table" style="stroke: #A80036; stroke-width: 1.0;"/><polygon fill="#A80036" points="344.544,111.0614,340.2519,102.1969,340.7251,107.834,335.0881,108.3072,344.544,111.0614" style="stroke: #A80036; stroke-width: 1.0;"/><text fill="#000000" font-family="Consolas" font-size="13" font-weight="bold" lengthAdjust="spacingAndGlyphs" textLength="77" x="210" y="67.6763">read_csv()</text><!--MD5=[fccc26aab589bfd617f4f5ae984dc9f1]
reverse link csv to table--><path d="M168.223,101.7254 C178.53,103.8244 189.018,105.8524 199,107.6094 C243.997,115.5304 296.27,122.4114 329.835,126.5324 " fill="none" id="csv-backto-table" style="stroke: #808080; stroke-width: 1.0;"/><polygon fill="#808080" points="163.18,100.6904,171.1913,106.4191,168.0778,101.6962,172.8007,98.5827,163.18,100.6904" style="stroke: #808080; stroke-width: 1.0;"/><text fill="#000000" font-family="Consolas" font-size="13" font-weight="bold" lengthAdjust="spacingAndGlyphs" textLength="83" x="207" y="103.6763">write_csv()</text><!--MD5=[52e9d0a5b22475e6da97bc0ff0d7e419]
link xl to table--><path d="M167.064,175.2186 C206.214,174.5711 255.374,171.2229 298,160.6094 C307.022,158.363 316.338,154.9383 325.037,151.1956 " fill="none" id="xl-to-table" style="stroke: #A80036; stroke-width: 1.0;"/><polygon fill="#A80036" points="329.8,149.0891,319.9512,149.0694,325.2269,151.1106,323.1856,156.3863,329.8,149.0891" style="stroke: #A80036; stroke-width: 1.0;"/><text fill="#000000" font-family="Consolas" font-size="13" font-weight="bold" lengthAdjust="spacingAndGlyphs" textLength="91" x="203" y="156.6763">read_excel()</text><!--MD5=[681920674bb6720d4c7d5ac8628e7c40]
reverse link xl to table--><path d="M172.335,200.953 C211.256,210.5089 258.568,215.2009 298,198.6094 C321.134,188.8753 340.241,166.7278 351.946,150.3394 " fill="none" id="xl-backto-table" style="stroke: #808080; stroke-width: 1.0;"/><polygon fill="#808080" points="167.145,199.638,174.8863,205.7267,171.9917,200.8665,176.8519,197.972,167.145,199.638" style="stroke: #808080; stroke-width: 1.0;"/><text fill="#000000" font-family="Consolas" font-size="13" font-weight="bold" lengthAdjust="spacingAndGlyphs" textLength="97" x="200" y="194.6763">write_excel()</text><!--MD5=[0f4895048a1d53c2e73e8bbf7de18b17]
@startuml
title = pdtable.io simplified API

skinparam {
    ArrowFontName Consolas
}

left to right direction

rectangle files as "File / stream" #WhiteSmoke {
    file csv as "<b>StarTable CSV"
    file xl as "<b>StarTable\n<b>Excel workbook\n(file only)"
}

rectangle memory as "Memory" #WhiteSmoke {
    file table as "==Table"
}

csv - -> table : <b>read_csv()
xl - -> table : <b>read_excel()

csv <- - table #Gray : <b>write_csv()
xl <- - table #Gray : <b>write_excel()
@enduml

PlantUML version 1.2020.18beta4(Unknown compile time)
(GPL source distribution)
Java Runtime: Java(TM) SE Runtime Environment
JVM: Java HotSpot(TM) 64-Bit Server VM
Default Encoding: UTF-8
Language: en
Country: US
--></g></svg>