<?xml version="1.0" encoding="UTF-8" standalone="no"?><svg xmlns="http://www.w3.org/2000/svg" xmlns:xlink="http://www.w3.org/1999/xlink" contentScriptType="application/ecmascript" contentStyleType="text/css" height="220px" preserveAspectRatio="none" style="width:429px;height:220px;" version="1.1" viewBox="0 0 429 220" width="429px" zoomAndPan="magnify"><defs><filter height="300%" id="f1ttpdrer1t1ly" width="300%" x="-1" y="-1"><feGaussianBlur result="blurOut" stdDeviation="2.0"/><feColorMatrix in="blurOut" result="blurOut2" type="matrix" values="0 0 0 0 0 0 0 0 0 0 0 0 0 0 0 0 0 0 .4 0"/><feOffset dx="4.0" dy="4.0" in="blurOut2" result="blurOut3"/><feBlend in="SourceGraphic" in2="blurOut3" mode="normal"/></filter></defs><g><text fill="#000000" font-family="sans-serif" font-size="22" font-weight="bold" lengthAdjust="spacingAndGlyphs" textLength="312" x="52" y="20.4209">pdtable.io simplified API</text><!--MD5=[22e39c158ccd515e083392dc1f6fdf64]
cluster files--><rect fill="#F5F5F5" filter="url(#f1ttpdrer1t1ly)" height="176" style="stroke:#000000;stroke-width:1.5;" width="176" x="7" y="32.6094"/><text fill="#000000" font-family="sans-serif" font-size="14" font-weight="bold" lengthAdjust="spacingAndGlyphs" textLength="101" x="44.5" y="47.6045">File / stream</text><!--MD5=[917295465906c8c8764f8324f07e5158]
cluster memory--><rect fill="#F5F5F5" filter="url(#f1ttpdrer1t1ly)" height="91" style="stroke:#000000;stroke-width:1.5;" width="103" x="314" y="71.6094"/><text fill="#000000" font-family="sans-serif" font-size="14" font-weight="bold" lengthAdjust="spacingAndGlyphs" textLength="64" x="333.5" y="86.6045">Memory</text><!--MD5=[5b5b6116e9ca12b5be308e1a61d0aa39]
entity csv--><polygon fill="#FEFECE" filter="url(#f1ttpdrer1t1ly)" points="27,67.6094,27,103.9063,163,103.9063,163,77.6094,153,67.6094,27,67.6094" style="stroke:#000000;stroke-width:1.5;"/><path d="M153,67.6094 L153,77.6094 L163,77.6094 " fill="#FEFECE" style="stroke:#000000;stroke-width:1.5;"/><text fill="#000000" font-family="sans-serif" font-size="14" font-weight="bold" lengthAdjust="spacingAndGlyphs" textLength="116" x="37" y="90.6045">StarTable CSV</text><!--MD5=[298ce850d60ec30fd6b0e133b061c1ae]
entity xl--><polygon fill="#FEFECE" filter="url(#f1ttpdrer1t1ly)" points="23,139.1094,23,191.7031,167,191.7031,167,149.1094,157,139.1094,23,139.1094" style="stroke:#000000;stroke-width:1.5;"/><path d="M157,139.1094 L157,149.1094 L167,149.1094 " fill="#FEFECE" style="stroke:#000000;stroke-width:1.5;"/><text fill="#000000" font-family="sans-serif" font-size="14" font-weight="bold" lengthAdjust="spacingAndGlyphs" textLength="80" x="33" y="162.1045">StarTable</text><text fill="#000000" font-family="sans-serif" font-size="14" font-weight="bold" lengthAdjust="spacingAndGlyphs" textLength="124" x="33" y="178.4014">Excel workbook</text><!--MD5=[1a9b3ce6b05045b91178d8f4231a8390]
entity table--><polygon fill="#FEFECE" filter="url(#f1ttpdrer1t1ly)" points="330,107.1094,330,145.7344,401,145.7344,401,117.1094,391,107.1094,330,107.1094" style="stroke:#000000;stroke-width:1.5;"/><path d="M391,107.1094 L391,117.1094 L401,117.1094 " fill="#FEFECE" style="stroke:#000000;stroke-width:1.5;"/><text fill="#000000" font-family="sans-serif" font-size="16" font-weight="bold" lengthAdjust="spacingAndGlyphs" textLength="51" x="340" y="131.9609">Table</text><!--MD5=[ec65343627e6222b213d34a0b8ee1d99]
link csv to table--><path d="M163.087,71.9954 C203.181,66.6044 254.593,64.5804 298,78.6094 C313.702,83.6844 328.817,94.0024 340.658,103.7764 " fill="none" id="csv-to-table" style="stroke:#A80036;stroke-width:1.0;"/><polygon fill="#A80036" points="344.544,107.0614,340.2519,98.1969,340.7251,103.834,335.0881,104.3072,344.544,107.0614" style="stroke:#A80036;stroke-width:1.0;"/><text fill="#000000" font-family="Consolas" font-size="13" font-weight="bold" lengthAdjust="spacingAndGlyphs" textLength="77" x="210" y="64.6763">read_csv()</text><!--MD5=[fccc26aab589bfd617f4f5ae984dc9f1]
reverse link csv to table--><path d="M168.299,98.5724 C178.595,100.3224 189.059,102.0504 199,103.6094 C244.137,110.6874 296.378,117.7624 329.897,122.1584 " fill="none" id="csv-backto-table" style="stroke:#808080;stroke-width:1.0;"/><polygon fill="#808080" points="163.261,97.7124,171.4595,103.1699,168.1897,98.5538,172.8058,95.284,163.261,97.7124" style="stroke:#808080;stroke-width:1.0;"/><text fill="#000000" font-family="Consolas" font-size="13" font-weight="bold" lengthAdjust="spacingAndGlyphs" textLength="83" x="207" y="99.6763">write_csv()</text><!--MD5=[52e9d0a5b22475e6da97bc0ff0d7e419]
link xl to table--><path d="M167.02,168.9493 C206.156,169.1751 255.317,166.7907 298,156.6094 C307.044,154.4522 316.369,151.0655 325.07,147.3317 " fill="none" id="xl-to-table" style="stroke:#A80036;stroke-width:1.0;"/><polygon fill="#A80036" points="329.834,145.2273,319.9852,145.2069,325.2607,147.2485,323.2191,152.5241,329.834,145.2273" style="stroke:#A80036;stroke-width:1.0;"/><text fill="#000000" font-family="Consolas" font-size="13" font-weight="bold" lengthAdjust="spacingAndGlyphs" textLength="91" x="203" y="152.6763">read_excel()</text><!--MD5=[681920674bb6720d4c7d5ac8628e7c40]
reverse link xl to table--><path d="M171.271,193.5684 C210.325,203.6896 258.082,209.0556 298,192.6094 C320.559,183.3148 339.513,162.253 351.341,146.4048 " fill="none" id="xl-backto-table" style="stroke:#808080;stroke-width:1.0;"/><polygon fill="#808080" points="166.065,192.1779,173.7283,198.3645,170.8957,193.4679,175.7923,190.6353,166.065,192.1779" style="stroke:#808080;stroke-width:1.0;"/><text fill="#000000" font-family="Consolas" font-size="13" font-weight="bold" lengthAdjust="spacingAndGlyphs" textLength="97" x="200" y="188.6763">write_excel()</text><!--MD5=[b4190d0211edcf22c6a1053bbd2d371d]
@startuml
title = pdtable.io simplified API

skinparam {
    ArrowFontName Consolas
}

left to right direction

rectangle files as "File / stream" #WhiteSmoke {
    file csv as "<b>StarTable CSV"
    file xl as "<b>StarTable\n<b>Excel workbook"
}

rectangle memory as "Memory" #WhiteSmoke {
    file table as "==Table"
}

csv - -> table : <b>read_csv()
xl - -> table : <b>read_excel()

csv <- - table #Gray : <b>write_csv()
xl <- - table #Gray : <b>write_excel()
@enduml

PlantUML version 1.2020.21beta7(Unknown compile time)
(GPL source distribution)
Java Runtime: Java(TM) SE Runtime Environment
JVM: Java HotSpot(TM) 64-Bit Server VM
Default Encoding: UTF-8
Language: en
Country: US
--></g></svg>